<svg xmlns="http://www.w3.org/2000/svg" viewBox="0 0 100 100"><defs><style>.cls-1{fill:#fff;}</style></defs><g id="Layer_2" data-name="Layer 2"><g id="YOUR_ARTWORK" data-name="YOUR ARTWORK"><rect id="Your_color" data-name="Your color" width="100" height="100" rx="39.33"/><path class="cls-1" d="M83.28,65.51H70.2a25.45,25.45,0,0,0,0-31.17H83.28a37.27,37.27,0,0,1,3.45,15.59A36,36,0,0,1,83.28,65.51Z"/><path class="cls-1" d="M50,65.43A15.58,15.58,0,1,0,34.42,49.85,15.57,15.57,0,0,0,50,65.43Z"/><path class="cls-1" d="M24.47,49.93A25.6,25.6,0,0,0,50,75.53a25.27,25.27,0,0,0,10.57-2.34v12A36.79,36.79,0,1,1,50,13.12a36.29,36.29,0,0,1,10.57,1.57v12A25.12,25.12,0,0,0,50,24.32,25.55,25.55,0,0,0,24.47,49.93Z"/></g></g></svg>